<?xml version="1.0" encoding="UTF-8"?><svg id="Laag_1" xmlns="http://www.w3.org/2000/svg" xmlns:xlink="http://www.w3.org/1999/xlink" viewBox="0 0 759.86 571.98"><defs><style>.cls-1{fill:#e3477a;}.cls-2{fill:url(#Naamloos_verloop_97);}</style><linearGradient id="Naamloos_verloop_97" x1="379.59" y1="0" x2="379.59" y2="49.98" gradientUnits="userSpaceOnUse"><stop offset=".03" stop-color="#e789a4"/><stop offset=".19" stop-color="#e7809f"/><stop offset=".45" stop-color="#e76a92"/><stop offset=".77" stop-color="#e7467d"/><stop offset="1" stop-color="#e7286c"/></linearGradient></defs><path class="cls-1" d="M0,49.98V571.98H759.86V49.98H0ZM736.96,481.09H220.69c0-.25,.01-.5,.01-.74,0-38.28-47.59-69.32-106.29-69.32-40.65,0-75.96,14.88-93.84,36.75V69.77H614.45v49.34c0,11.42,9.26,20.68,20.68,20.68h101.83V481.09Z"/><path class="cls-2" d="M722.15,.34C493.61,.23,265.08,.11,36.54,0,24.36,16.66,12.18,33.32,0,49.98H759.17c-12.34-16.55-24.68-33.09-37.02-49.64Z"/></svg>